<?xml version="1.0" encoding="UTF-8" standalone="no"?>
<!DOCTYPE svg PUBLIC "-//W3C//DTD SVG 1.1//EN"
 "http://www.w3.org/Graphics/SVG/1.1/DTD/svg11.dtd">
<!-- Generated by graphviz version 5.0.0 (20220707.1540)
 -->
<!-- Title: dependencies Pages: 1 -->
<svg width="464pt" height="174pt"
 viewBox="0.00 0.00 464.00 173.80" xmlns="http://www.w3.org/2000/svg" xmlns:xlink="http://www.w3.org/1999/xlink">
<g id="graph0" class="graph" transform="scale(1 1) rotate(0) translate(4 169.8)">
<title>dependencies</title>
<polygon fill="white" stroke="transparent" points="-4,4 -4,-169.8 460,-169.8 460,4 -4,4"/>
<text text-anchor="middle" x="228" y="-8.2" font-family="sans-serif" font-size="14.00">dependencies</text>
<g id="clust1" class="cluster">
<title>cluster_CompaniesModule</title>
<polygon fill="none" stroke="black" stroke-dasharray="1,5" points="8,-32.8 8,-157.8 448,-157.8 448,-32.8 8,-32.8"/>
</g>
<g id="clust6" class="cluster">
<title>cluster_CompaniesModule_providers</title>
<polygon fill="none" stroke="black" points="258,-40.8 258,-92.8 440,-92.8 440,-40.8 258,-40.8"/>
</g>
<g id="clust3" class="cluster">
<title>cluster_CompaniesModule_imports</title>
<polygon fill="none" stroke="black" points="16,-40.8 16,-92.8 250,-92.8 250,-40.8 16,-40.8"/>
</g>
<!-- ProductsModule -->
<g id="node1" class="node">
<title>ProductsModule</title>
<polygon fill="#8dd3c7" stroke="black" points="242.05,-84.8 239.05,-88.8 218.05,-88.8 215.05,-84.8 133.95,-84.8 133.95,-48.8 242.05,-48.8 242.05,-84.8"/>
<text text-anchor="middle" x="188" y="-62.6" font-family="Times,serif" font-size="14.00">ProductsModule</text>
</g>
<!-- CompaniesModule -->
<g id="node3" class="node">
<title>CompaniesModule</title>
<polygon fill="#8dd3c7" stroke="black" points="249.05,-149.8 246.05,-153.8 225.05,-153.8 222.05,-149.8 126.95,-149.8 126.95,-113.8 249.05,-113.8 249.05,-149.8"/>
<text text-anchor="middle" x="188" y="-127.6" font-family="Times,serif" font-size="14.00">CompaniesModule</text>
</g>
<!-- ProductsModule&#45;&gt;CompaniesModule -->
<g id="edge1" class="edge">
<title>ProductsModule&#45;&gt;CompaniesModule</title>
<path fill="none" stroke="black" d="M188,-84.91C188,-84.91 188,-103.79 188,-103.79"/>
<polygon fill="black" stroke="black" points="184.5,-103.79 188,-113.79 191.5,-103.79 184.5,-103.79"/>
</g>
<!-- UsersModule -->
<g id="node2" class="node">
<title>UsersModule</title>
<polygon fill="#8dd3c7" stroke="black" points="115.94,-84.8 112.94,-88.8 91.94,-88.8 88.94,-84.8 24.06,-84.8 24.06,-48.8 115.94,-48.8 115.94,-84.8"/>
<text text-anchor="middle" x="70" y="-62.6" font-family="Times,serif" font-size="14.00">UsersModule</text>
</g>
<!-- UsersModule&#45;&gt;CompaniesModule -->
<g id="edge2" class="edge">
<title>UsersModule&#45;&gt;CompaniesModule</title>
<path fill="none" stroke="black" d="M70,-84.91C70,-104.14 70,-131.8 70,-131.8 70,-131.8 116.93,-131.8 116.93,-131.8"/>
<polygon fill="black" stroke="black" points="116.93,-135.3 126.93,-131.8 116.93,-128.3 116.93,-135.3"/>
</g>
<!-- CompaniesService -->
<g id="node4" class="node">
<title>CompaniesService</title>
<ellipse fill="#fdb462" stroke="black" cx="349" cy="-66.8" rx="83.39" ry="18"/>
<text text-anchor="middle" x="349" y="-62.6" font-family="Times,serif" font-size="14.00">CompaniesService</text>
</g>
<!-- CompaniesService&#45;&gt;CompaniesModule -->
<g id="edge3" class="edge">
<title>CompaniesService&#45;&gt;CompaniesModule</title>
<path fill="none" stroke="black" d="M349,-84.91C349,-104.14 349,-131.8 349,-131.8 349,-131.8 259.33,-131.8 259.33,-131.8"/>
<polygon fill="black" stroke="black" points="259.33,-128.3 249.33,-131.8 259.33,-135.3 259.33,-128.3"/>
</g>
</g>
</svg>
