<?xml version="1.0" encoding="UTF-8" standalone="no"?>
<!DOCTYPE svg PUBLIC "-//W3C//DTD SVG 1.1//EN"
 "http://www.w3.org/Graphics/SVG/1.1/DTD/svg11.dtd">
<!-- Generated by graphviz version 5.0.0 (20220707.1540)
 -->
<!-- Title: dependencies Pages: 1 -->
<svg width="509pt" height="326pt"
 viewBox="0.00 0.00 509.00 325.80" xmlns="http://www.w3.org/2000/svg" xmlns:xlink="http://www.w3.org/1999/xlink">
<g id="graph0" class="graph" transform="scale(1 1) rotate(0) translate(4 321.8)">
<title>dependencies</title>
<polygon fill="white" stroke="transparent" points="-4,4 -4,-321.8 505,-321.8 505,4 -4,4"/>
<text text-anchor="middle" x="250.5" y="-8.2" font-family="sans-serif" font-size="14.00">dependencies</text>
<g id="clust1" class="cluster">
<title>cluster_AppModule</title>
<polygon fill="none" stroke="black" stroke-dasharray="1,5" points="53,-184.8 53,-309.8 345,-309.8 345,-184.8 53,-184.8"/>
</g>
<g id="clust3" class="cluster">
<title>cluster_AppModule_imports</title>
<polygon fill="none" stroke="black" points="199,-192.8 199,-244.8 337,-244.8 337,-192.8 199,-192.8"/>
</g>
<g id="clust6" class="cluster">
<title>cluster_AppModule_providers</title>
<polygon fill="none" stroke="black" points="61,-192.8 61,-244.8 191,-244.8 191,-192.8 61,-192.8"/>
</g>
<g id="clust7" class="cluster">
<title>cluster_CompaniesModule</title>
<polygon fill="none" stroke="black" stroke-dasharray="1,5" points="8,-108.8 8,-176.8 448,-176.8 448,-108.8 8,-108.8"/>
</g>
<g id="clust9" class="cluster">
<title>cluster_CompaniesModule_imports</title>
<polygon fill="none" stroke="black" points="206,-116.8 206,-168.8 440,-168.8 440,-116.8 206,-116.8"/>
</g>
<g id="clust12" class="cluster">
<title>cluster_CompaniesModule_providers</title>
<polygon fill="none" stroke="black" points="16,-116.8 16,-168.8 198,-168.8 198,-116.8 16,-116.8"/>
</g>
<g id="clust13" class="cluster">
<title>cluster_ProductsModule</title>
<polygon fill="none" stroke="black" stroke-dasharray="1,5" points="149,-32.8 149,-100.8 329,-100.8 329,-32.8 149,-32.8"/>
</g>
<g id="clust18" class="cluster">
<title>cluster_ProductsModule_providers</title>
<polygon fill="none" stroke="black" points="157,-40.8 157,-92.8 321,-92.8 321,-40.8 157,-40.8"/>
</g>
<g id="clust19" class="cluster">
<title>cluster_UsersModule</title>
<polygon fill="none" stroke="black" stroke-dasharray="1,5" points="337,-32.8 337,-100.8 493,-100.8 493,-32.8 337,-32.8"/>
</g>
<g id="clust24" class="cluster">
<title>cluster_UsersModule_providers</title>
<polygon fill="none" stroke="black" points="345,-40.8 345,-92.8 485,-92.8 485,-40.8 345,-40.8"/>
</g>
<!-- CompaniesModule -->
<g id="node1" class="node">
<title>CompaniesModule</title>
<polygon fill="#8dd3c7" stroke="black" points="329.05,-236.8 326.05,-240.8 305.05,-240.8 302.05,-236.8 206.95,-236.8 206.95,-200.8 329.05,-200.8 329.05,-236.8"/>
<text text-anchor="middle" x="268" y="-214.6" font-family="Times,serif" font-size="14.00">CompaniesModule</text>
</g>
<!-- AppModule -->
<g id="node2" class="node">
<title>AppModule</title>
<polygon fill="#8dd3c7" stroke="black" points="238.66,-301.8 235.66,-305.8 214.66,-305.8 211.66,-301.8 155.34,-301.8 155.34,-265.8 238.66,-265.8 238.66,-301.8"/>
<text text-anchor="middle" x="197" y="-279.6" font-family="Times,serif" font-size="14.00">AppModule</text>
</g>
<!-- CompaniesModule&#45;&gt;AppModule -->
<g id="edge1" class="edge">
<title>CompaniesModule&#45;&gt;AppModule</title>
<path fill="none" stroke="black" d="M222.78,-236.91C222.78,-236.91 222.78,-255.79 222.78,-255.79"/>
<polygon fill="black" stroke="black" points="219.28,-255.79 222.78,-265.79 226.28,-255.79 219.28,-255.79"/>
</g>
<!-- AppService -->
<g id="node3" class="node">
<title>AppService</title>
<ellipse fill="#fdb462" stroke="black" cx="126" cy="-218.8" rx="56.75" ry="18"/>
<text text-anchor="middle" x="126" y="-214.6" font-family="Times,serif" font-size="14.00">AppService</text>
</g>
<!-- AppService&#45;&gt;AppModule -->
<g id="edge2" class="edge">
<title>AppService&#45;&gt;AppModule</title>
<path fill="none" stroke="black" d="M168.9,-230.72C168.9,-230.72 168.9,-255.57 168.9,-255.57"/>
<polygon fill="black" stroke="black" points="165.4,-255.57 168.9,-265.57 172.4,-255.57 165.4,-255.57"/>
</g>
<!-- ProductsModule -->
<g id="node4" class="node">
<title>ProductsModule</title>
<polygon fill="#8dd3c7" stroke="black" points="322.05,-160.8 319.05,-164.8 298.05,-164.8 295.05,-160.8 213.95,-160.8 213.95,-124.8 322.05,-124.8 322.05,-160.8"/>
<text text-anchor="middle" x="268" y="-138.6" font-family="Times,serif" font-size="14.00">ProductsModule</text>
</g>
<!-- ProductsModule&#45;&gt;CompaniesModule -->
<g id="edge3" class="edge">
<title>ProductsModule&#45;&gt;CompaniesModule</title>
<path fill="none" stroke="black" d="M268,-160.81C268,-160.81 268,-190.65 268,-190.65"/>
<polygon fill="black" stroke="black" points="264.5,-190.65 268,-200.65 271.5,-190.65 264.5,-190.65"/>
</g>
<!-- UsersModule -->
<g id="node5" class="node">
<title>UsersModule</title>
<polygon fill="#8dd3c7" stroke="black" points="431.94,-160.8 428.94,-164.8 407.94,-164.8 404.94,-160.8 340.06,-160.8 340.06,-124.8 431.94,-124.8 431.94,-160.8"/>
<text text-anchor="middle" x="386" y="-138.6" font-family="Times,serif" font-size="14.00">UsersModule</text>
</g>
<!-- UsersModule&#45;&gt;CompaniesModule -->
<g id="edge4" class="edge">
<title>UsersModule&#45;&gt;CompaniesModule</title>
<path fill="none" stroke="black" d="M386,-160.81C386,-183.29 386,-218.8 386,-218.8 386,-218.8 339.07,-218.8 339.07,-218.8"/>
<polygon fill="black" stroke="black" points="339.07,-215.3 329.07,-218.8 339.07,-222.3 339.07,-215.3"/>
</g>
<!-- CompaniesService -->
<g id="node6" class="node">
<title>CompaniesService</title>
<ellipse fill="#fdb462" stroke="black" cx="107" cy="-142.8" rx="83.39" ry="18"/>
<text text-anchor="middle" x="107" y="-138.6" font-family="Times,serif" font-size="14.00">CompaniesService</text>
</g>
<!-- CompaniesService&#45;&gt;CompaniesModule -->
<g id="edge5" class="edge">
<title>CompaniesService&#45;&gt;CompaniesModule</title>
<path fill="none" stroke="black" d="M186.53,-148.27C186.53,-165.69 186.53,-218.8 186.53,-218.8 186.53,-218.8 196.67,-218.8 196.67,-218.8"/>
<polygon fill="black" stroke="black" points="196.67,-222.3 206.67,-218.8 196.67,-215.3 196.67,-222.3"/>
</g>
<!-- ProductsService -->
<g id="node7" class="node">
<title>ProductsService</title>
<ellipse fill="#fdb462" stroke="black" cx="239" cy="-66.8" rx="73.59" ry="18"/>
<text text-anchor="middle" x="239" y="-62.6" font-family="Times,serif" font-size="14.00">ProductsService</text>
</g>
<!-- ProductsService&#45;&gt;ProductsModule -->
<g id="edge6" class="edge">
<title>ProductsService&#45;&gt;ProductsModule</title>
<path fill="none" stroke="black" d="M263.26,-84.05C263.26,-84.05 263.26,-114.56 263.26,-114.56"/>
<polygon fill="black" stroke="black" points="259.76,-114.56 263.26,-124.56 266.76,-114.56 259.76,-114.56"/>
</g>
<!-- UsersService -->
<g id="node8" class="node">
<title>UsersService</title>
<ellipse fill="#fdb462" stroke="black" cx="415" cy="-66.8" rx="61.97" ry="18"/>
<text text-anchor="middle" x="415" y="-62.6" font-family="Times,serif" font-size="14.00">UsersService</text>
</g>
<!-- UsersService&#45;&gt;UsersModule -->
<g id="edge7" class="edge">
<title>UsersService&#45;&gt;UsersModule</title>
<path fill="none" stroke="black" d="M392.37,-83.67C392.37,-83.67 392.37,-114.65 392.37,-114.65"/>
<polygon fill="black" stroke="black" points="388.87,-114.65 392.37,-124.65 395.87,-114.65 388.87,-114.65"/>
</g>
</g>
</svg>
